<svg width="82" height="15" viewBox="0 0 82 15" fill="none" xmlns="http://www.w3.org/2000/svg">
<path fill-rule="evenodd" clip-rule="evenodd" d="M17.7521 13.9672C17.2945 14.2307 16.7648 14.3625 16.163 14.3625C15.4797 14.3625 14.8403 14.2338 14.2448 13.9766C13.6492 13.7193 13.1242 13.3632 12.6698 12.9083C12.2153 12.4534 11.8595 11.9279 11.6025 11.3318C11.3455 10.7358 11.217 10.0958 11.217 9.41183C11.217 8.72791 11.3455 8.0879 11.6025 7.49182C11.8595 6.89574 12.2153 6.37024 12.6698 5.91534C13.1242 5.46043 13.6492 5.10435 14.2448 4.8471C14.8403 4.58984 15.4797 4.46121 16.163 4.46121C16.7648 4.46121 17.2945 4.59141 17.7521 4.8518C18.2097 5.1122 18.5889 5.45573 18.8898 5.8824V0H21.1842V14.1178H18.8898V12.9413C18.5889 13.3617 18.2097 13.7036 17.7521 13.9672ZM14.8795 11.7836C15.2775 12.0283 15.7148 12.1507 16.1912 12.1507C16.6801 12.1507 17.1127 12.0283 17.4888 11.7836C17.8649 11.5389 18.1595 11.2079 18.3727 10.7907C18.5858 10.3734 18.6924 9.9138 18.6924 9.41184C18.6924 8.9036 18.5858 8.44085 18.3727 8.02359C18.1595 7.60633 17.8633 7.27535 17.4841 7.03064C17.1048 6.78593 16.6739 6.66358 16.1912 6.66358C15.7085 6.66358 15.2697 6.7875 14.8748 7.03535C14.4798 7.28319 14.1633 7.61417 13.9251 8.0283C13.6868 8.44242 13.5677 8.9036 13.5677 9.41184C13.5677 9.92007 13.6868 10.3813 13.9251 10.7954C14.1633 11.2095 14.4814 11.5389 14.8795 11.7836ZM27.9449 14.3625C28.5154 14.3625 29.0121 14.2323 29.4353 13.9719C29.8584 13.7115 30.2016 13.3711 30.4649 12.9507L30.5589 14.1178H32.8627V4.70592H30.5683L30.6718 5.91063C30.327 5.48396 29.9086 5.13259 29.4165 4.85651C28.9244 4.58043 28.3649 4.44239 27.738 4.44239C27.0673 4.44239 26.4404 4.56788 25.8574 4.81886C25.2745 5.06984 24.7604 5.41808 24.3154 5.86357C23.8703 6.30907 23.5255 6.82672 23.281 7.41653C23.0365 8.00633 22.9143 8.63693 22.9143 9.3083C22.9143 10.0048 23.0428 10.6573 23.2998 11.266C23.5568 11.8746 23.9173 12.4111 24.3812 12.8754C24.8451 13.3397 25.381 13.7036 25.9891 13.9672C26.5971 14.2307 27.2491 14.3625 27.9449 14.3625ZM26.7084 11.793C27.1127 12.0315 27.5468 12.1507 28.0107 12.1507C28.5122 12.1507 28.9479 12.0221 29.3177 11.7648C29.6876 11.5075 29.9681 11.164 30.1593 10.7342C30.3505 10.3044 30.4273 9.82909 30.3897 9.3083C30.3458 8.81889 30.2016 8.37496 29.9571 7.97653C29.7127 7.5781 29.3992 7.25966 29.0168 7.02123C28.6345 6.7828 28.2051 6.66358 27.7286 6.66358C27.2334 6.66358 26.7899 6.79221 26.3981 7.04946C26.0063 7.30672 25.7039 7.65025 25.4907 8.08006C25.2776 8.50987 25.193 8.9883 25.2368 9.51537C25.287 9.99851 25.4437 10.4393 25.707 10.8377C25.9703 11.2362 26.3041 11.5546 26.7084 11.793ZM38.3352 14.1178V7.00241H40.1594V4.70592H38.3352V1.7506H36.0409V4.70592H34.6492V7.00241H36.0409V14.1178H38.3352ZM47.9216 13.9719C47.4984 14.2323 47.0016 14.3625 46.4312 14.3625C45.7354 14.3625 45.0834 14.2307 44.4754 13.9672C43.8673 13.7036 43.3313 13.3397 42.8675 12.8754C42.4036 12.4111 42.0431 11.8746 41.7861 11.266C41.5291 10.6573 41.4006 10.0048 41.4006 9.3083C41.4006 8.63693 41.5228 8.00633 41.7673 7.41653C42.0118 6.82672 42.3566 6.30907 42.8016 5.86357C43.2467 5.41808 43.7607 5.06984 44.3437 4.81886C44.9267 4.56788 45.5536 4.44239 46.2243 4.44239C46.8512 4.44239 47.4107 4.58043 47.9028 4.85651C48.3948 5.13259 48.8133 5.48396 49.1581 5.91063L49.0546 4.70592H51.3489V14.1178H49.0452L48.9512 12.9507C48.6879 13.3711 48.3447 13.7115 47.9216 13.9719ZM46.497 12.1507C46.0331 12.1507 45.599 12.0315 45.1947 11.793C44.7904 11.5546 44.4566 11.2362 44.1933 10.8377C43.93 10.4393 43.7733 9.99851 43.7231 9.51537C43.6792 8.9883 43.7639 8.50987 43.977 8.08006C44.1901 7.65025 44.4926 7.30672 44.8844 7.04946C45.2762 6.79221 45.7197 6.66358 46.2149 6.66358C46.6913 6.66358 47.1207 6.7828 47.5031 7.02123C47.8855 7.25966 48.1989 7.5781 48.4434 7.97653C48.6879 8.37496 48.8321 8.81889 48.876 9.3083C48.9136 9.82909 48.8368 10.3044 48.6456 10.7342C48.4544 11.164 48.1739 11.5075 47.804 11.7648C47.4342 12.0221 46.9985 12.1507 46.497 12.1507ZM60.5404 13.9766C59.9417 14.2338 59.2976 14.3625 58.6081 14.3625C58.0188 14.3625 57.4969 14.2291 57.0425 13.9625C56.588 13.6958 56.2072 13.3491 55.9 12.9225V14.1178H53.6057V0H55.9V5.8824C56.2072 5.45573 56.588 5.10906 57.0425 4.84239C57.4969 4.57572 58.0188 4.44239 58.6081 4.44239C59.5233 4.44239 60.357 4.66513 61.1092 5.11063C61.8615 5.55612 62.4601 6.15377 62.9052 6.90358C63.3503 7.65339 63.5728 8.4832 63.5728 9.39301C63.5728 10.0769 63.4443 10.7201 63.1873 11.3224C62.9303 11.9248 62.5745 12.4534 62.1201 12.9083C61.6656 13.3632 61.139 13.7193 60.5404 13.9766ZM58.5798 12.1413C58.1034 12.1413 57.6772 12.0189 57.301 11.7742C56.9249 11.5295 56.6303 11.1985 56.4172 10.7813C56.204 10.364 56.0975 9.90125 56.0975 9.39301C56.0975 8.89732 56.204 8.44085 56.4172 8.02359C56.6303 7.60633 56.9249 7.27378 57.301 7.02594C57.6772 6.77809 58.1034 6.65417 58.5798 6.65417C59.0625 6.65417 59.5045 6.77652 59.9057 7.02123C60.3069 7.26594 60.6266 7.59692 60.8648 8.01418C61.103 8.43144 61.2221 8.89105 61.2221 9.39301C61.2221 9.90125 61.103 10.3624 60.8648 10.7766C60.6266 11.1907 60.3084 11.5217 59.9104 11.7695C59.5123 12.0173 59.0688 12.1413 58.5798 12.1413ZM67.2635 2.96943C67.0347 3.19218 66.7542 3.30355 66.4219 3.30355C66.0897 3.30355 65.8076 3.19218 65.5757 2.96943C65.3437 2.74669 65.2278 2.4659 65.2278 2.12707C65.2278 1.79452 65.3437 1.51531 65.5757 1.28942C65.8076 1.06354 66.0897 0.950595 66.4219 0.950595C66.7542 0.950595 67.0347 1.06354 67.2635 1.28942C67.4923 1.51531 67.6067 1.79452 67.6067 2.12707C67.6067 2.4659 67.4923 2.74669 67.2635 2.96943ZM80.0663 6.89417C80.3985 6.89417 80.679 6.7828 80.9078 6.56005C81.1366 6.3373 81.2511 6.05652 81.2511 5.71769C81.2511 5.38514 81.1366 5.10592 80.9078 4.88004C80.679 4.65415 80.3985 4.54121 80.0663 4.54121C79.734 4.54121 79.4519 4.65415 79.22 4.88004C78.9881 5.10592 78.8721 5.38514 78.8721 5.71769C78.8721 6.05652 78.9881 6.3373 79.22 6.56005C79.4519 6.7828 79.734 6.89417 80.0663 6.89417ZM8.07703 12.5512C7.16922 13.4349 6.05622 13.8768 4.73803 13.8768C3.41984 13.8768 2.30062 13.4349 1.38037 12.5512C0.460123 11.6674 0 10.5533 0 9.20901C0 7.88958 0.460123 6.78175 1.38037 5.88554C2.30062 4.98932 3.41984 4.54121 4.73803 4.54121C6.05622 4.54121 7.16922 4.98932 8.07703 5.88554C8.98484 6.78175 9.43874 7.88958 9.43874 9.20901C9.43874 10.5533 8.98484 11.6674 8.07703 12.5512ZM67.5597 4.70592H65.2654V14.1178H67.5597V4.70592ZM77.8998 11.8213V14.1178H69.8697V11.8213L74.5994 7.00241H69.8697V4.70592H77.8998V7.00241L73.1796 11.8213H77.8998Z" fill="#ADADAD"/>
</svg>
