<svg width="59" height="18" viewBox="0 0 59 18" fill="none" xmlns="http://www.w3.org/2000/svg">
<path d="M15.6572 6.62793C16.6356 7.74922 17.2316 9.2135 17.2354 10.8184C17.2392 12.5178 16.5671 14.15 15.3672 15.3535C14.1673 16.557 12.5374 17.2341 10.8379 17.2354C9.226 17.2365 7.75409 16.6398 6.62793 15.6572C7.03541 15.7222 7.45312 15.7578 7.87891 15.7578C8.096 15.7578 8.31078 15.7457 8.52344 15.7285C9.88404 16.3703 11.4791 16.4326 12.9189 15.832C14.9427 14.9877 16.2579 13.0064 16.25 10.8135C16.2463 9.99222 16.0587 9.21488 15.7285 8.51855C15.7455 8.30748 15.7578 8.09435 15.7578 7.87891C15.7578 7.45312 15.7222 7.03541 15.6572 6.62793ZM10.8379 5.41699C12.9974 5.42085 14.8603 6.68758 15.7285 8.51855C15.4199 12.3579 12.3621 15.4176 8.52344 15.7285C7.97161 15.4682 7.45685 15.1157 7.00879 14.6689C5.45599 13.1203 4.99033 10.788 5.8291 8.76172C6.66783 6.73559 8.64504 5.4152 10.8379 5.41699ZM7.87891 0C11.8044 3.48726e-05 15.0578 2.8712 15.6572 6.62793C14.4812 5.28012 12.7514 4.42829 10.8223 4.43164C7.28806 4.43792 4.42716 7.30759 4.43164 10.8418C4.43416 12.7639 5.28506 14.4855 6.62793 15.6572C2.8712 15.0578 3.48736e-05 11.8044 0 7.87891C0 3.52755 3.52755 0 7.87891 0ZM37.1504 5.75195C37.7137 5.75195 38.2141 5.83842 38.6514 6.01172C39.0886 6.18505 39.42 6.4847 39.6445 6.91016C39.7705 7.14638 39.8455 7.38291 39.8691 7.61914C39.8928 7.85542 39.9043 8.11975 39.9043 8.41113V12.3105H38.498V11.5264L38.4873 11.5391C38.2368 11.8318 37.9717 12.0526 37.6914 12.2012C37.3309 12.3922 36.8748 12.4883 36.3232 12.4883C35.8663 12.4883 35.4792 12.3999 35.1621 12.2246C34.8451 12.0493 34.6048 11.8149 34.4414 11.5215C34.278 11.2281 34.1963 10.9042 34.1963 10.5498C34.1963 10.2544 34.2414 9.98447 34.332 9.74023C34.4226 9.49599 34.5696 9.2799 34.7725 9.09277C34.9753 8.90578 35.2483 8.74904 35.5908 8.62305C35.8271 8.53642 36.1087 8.45952 36.4355 8.39258C36.7625 8.32561 37.1332 8.26223 37.5469 8.20117L37.7998 8.16309L38.0625 8.12402L38.3193 8.08594L38.3076 8.00293C38.2696 7.7805 38.1873 7.60748 38.0605 7.4834C37.8793 7.30612 37.5758 7.2168 37.1504 7.2168C36.9141 7.21684 36.6681 7.27447 36.4121 7.38867C36.1561 7.50292 35.9764 7.70557 35.874 7.99707L34.4209 7.53613C34.5824 7.00827 34.8859 6.57895 35.3311 6.24805C35.7761 5.91727 36.3824 5.75199 37.1504 5.75195ZM50.8359 5.75195C51.5056 5.75195 52.0752 5.90946 52.5439 6.22461C53.0126 6.53974 53.3595 6.9826 53.584 7.55371C53.8085 8.12481 53.8872 8.79644 53.8203 9.56836H49.3398L49.3486 9.63086C49.4036 9.98502 49.5197 10.2751 49.6982 10.5C49.9562 10.8249 50.3358 10.9872 50.8359 10.9873C51.151 10.9873 51.421 10.9181 51.6455 10.7803C51.87 10.6424 52.042 10.4436 52.1602 10.1836L53.7676 10.6445C53.5273 11.2274 53.1477 11.6799 52.6299 12.0029C52.1119 12.326 51.5452 12.4883 50.9307 12.4883C50.2768 12.4883 49.7005 12.3471 49.2021 12.0654C48.7039 11.7838 48.3139 11.3957 48.0322 10.9014C47.7506 10.407 47.6094 9.84032 47.6094 9.20215C47.6094 8.50514 47.7478 7.89873 48.0234 7.38281C48.2992 6.86675 48.6795 6.4653 49.1641 6.17969C49.6485 5.89421 50.2058 5.75199 50.8359 5.75195ZM30.8047 5.77539C31.5332 5.77547 32.0839 5.99067 32.4561 6.42188C32.8283 6.85324 33.0146 7.41796 33.0146 8.11523V12.3105H31.4072V8.54102C31.4072 8.1195 31.3073 7.79104 31.1084 7.55664C30.9095 7.32237 30.6347 7.20508 30.2842 7.20508C30.0597 7.20509 29.8646 7.25702 29.6992 7.36133C29.5339 7.46567 29.4051 7.61185 29.3125 7.79883C29.2199 7.98595 29.1738 8.20205 29.1738 8.44629V12.3105H27.5664V8.54102C27.5664 8.1195 27.4665 7.79104 27.2676 7.55664C27.0686 7.32233 26.7939 7.20508 26.4434 7.20508C26.1085 7.20508 25.8396 7.32035 25.6367 7.55078C25.4338 7.78124 25.332 8.07992 25.332 8.44629V12.3105H23.7129V5.92871H25.1318V6.62891L25.2051 6.54297C25.3762 6.35302 25.5794 6.19313 25.8145 6.06445C26.1669 5.87159 26.5619 5.77539 26.999 5.77539C27.4992 5.77542 27.9095 5.88206 28.2305 6.09473L28.335 6.16797C28.5365 6.32026 28.7009 6.50444 28.8281 6.71973L28.8545 6.76855C29.056 6.46712 29.3196 6.22954 29.6436 6.05566C29.9921 5.86869 30.3794 5.77539 30.8047 5.77539ZM43.0713 9.00195L45.2344 5.92871H47.2197L44.915 9.12012L47.373 12.3105H45.2812L43.0713 9.23828V12.3105H41.4287L41.4404 3.80176H43.0713V9.00195ZM58.8965 5.92871V7.42969C58.7192 7.37454 58.5127 7.3563 58.2783 7.37402C58.0441 7.39179 57.8325 7.44559 57.6436 7.53613C57.4545 7.62279 57.295 7.73807 57.165 7.88184C57.0351 8.02557 56.9361 8.19473 56.8691 8.38965C56.8022 8.58465 56.7686 8.80459 56.7686 9.04883V12.3105H55.1494V5.92871H56.5684V6.95703L56.5928 6.91211C56.639 6.83344 56.6901 6.75793 56.7451 6.68555C56.883 6.50433 57.053 6.35451 57.2539 6.23633C57.4075 6.14183 57.5747 6.06781 57.7559 6.01465C57.9371 5.96147 58.1244 5.92785 58.3174 5.91406C58.5103 5.90029 58.7035 5.90508 58.8965 5.92871ZM38.2832 9.3916C38.0279 9.43482 37.8076 9.47361 37.623 9.50684C37.3278 9.55999 37.0893 9.60805 36.9082 9.65137C36.7271 9.69468 36.5675 9.74178 36.4297 9.79297C36.2722 9.85595 36.1453 9.92425 36.0488 9.99707C35.9524 10.0699 35.8812 10.1497 35.8359 10.2363C35.7906 10.323 35.7676 10.42 35.7676 10.5264C35.7676 10.672 35.8042 10.7971 35.877 10.9014C35.9498 11.0058 36.0536 11.0855 36.1875 11.1406C36.3214 11.1958 36.4809 11.2236 36.666 11.2236C36.9615 11.2236 37.2112 11.1708 37.4141 11.0664C37.6167 10.9621 37.7784 10.8428 37.8984 10.709C38.0184 10.5752 38.1003 10.4626 38.1436 10.3721C38.2262 10.1988 38.2743 9.99688 38.2881 9.7666L38.2959 9.63281C38.3003 9.54694 38.3035 9.46718 38.3057 9.39355V9.38867L38.2832 9.3916ZM50.9072 7.14648C50.3596 7.14648 49.9563 7.31263 49.6982 7.64551L49.6416 7.72461C49.5317 7.88951 49.4495 8.08884 49.3945 8.32129L49.3828 8.375H52.1934L52.1846 8.30859C52.1356 7.99495 52.0481 7.74993 51.9209 7.57422C51.7141 7.28865 51.3759 7.14651 50.9072 7.14648Z" fill="#ADADAD"/>
</svg>
