<svg width="65" height="15" viewBox="0 0 65 15" fill="none" xmlns="http://www.w3.org/2000/svg">
<path fill-rule="evenodd" clip-rule="evenodd" d="M7.18164 10.7715C7.18145 8.78868 5.57365 7.18175 3.59082 7.18164C1.6079 7.18164 0.000194937 8.78861 0 10.7715C0 12.7545 1.60778 14.3623 3.59082 14.3623C5.57377 14.3622 7.18164 12.7545 7.18164 10.7715ZM40.8096 4.59668C40.2799 4.35297 39.7012 4.23047 39.0742 4.23047C38.4474 4.23048 37.8612 4.34753 37.3154 4.58008C36.7697 4.81263 36.2964 5.1333 35.8965 5.54297C35.4965 5.9528 35.1797 6.43772 34.9473 6.99707C34.7149 7.55636 34.5987 8.15194 34.5986 8.7832C34.5986 9.41463 34.7206 10.0109 34.9639 10.5703C35.2071 11.1295 35.5371 11.6137 35.9531 12.0234C36.3693 12.4333 36.8636 12.7547 37.4365 12.9873C38.0094 13.2199 38.6201 13.3369 39.2686 13.3369C39.982 13.3369 40.6229 13.231 41.1904 13.0205C41.7579 12.81 42.312 12.4721 42.8525 12.0068L41.1172 10.4287C40.9119 10.639 40.6637 10.8027 40.3721 10.9189C40.0802 11.0353 39.7552 11.0938 39.3984 11.0938C38.9014 11.0937 38.469 10.9633 38.1016 10.7031C37.734 10.4428 37.464 10.1071 37.291 9.69727H43.4043V9.0332C43.4043 8.34639 43.2953 7.70594 43.0791 7.11328C42.863 6.52098 42.5632 6.01452 42.1797 5.59375C41.796 5.17287 41.3392 4.84038 40.8096 4.59668ZM50.458 4.59668C49.9283 4.35298 49.3496 4.23048 48.7227 4.23047C48.0957 4.23047 47.5088 4.34745 46.9629 4.58008C46.4172 4.81269 45.9438 5.13321 45.5439 5.54297C45.144 5.95278 44.8281 6.43775 44.5957 6.99707C44.3633 7.55636 44.2471 8.15194 44.2471 8.7832C44.2471 9.41463 44.3691 10.0109 44.6123 10.5703C44.8555 11.1295 45.1855 11.6137 45.6016 12.0234C46.0178 12.4333 46.512 12.7547 47.085 12.9873C47.6579 13.2199 48.2684 13.3369 48.917 13.3369C49.6305 13.3369 50.2713 13.231 50.8389 13.0205C51.4063 12.81 51.9605 12.472 52.501 12.0068L50.7656 10.4287C50.5602 10.6391 50.3114 10.8026 50.0195 10.9189C49.7277 11.0352 49.4035 11.0938 49.0469 11.0938C48.5498 11.0937 48.1175 10.9633 47.75 10.7031C47.3824 10.4428 47.1114 10.1071 46.9385 9.69727H53.0518V9.0332C53.0518 8.34639 52.9437 7.70594 52.7275 7.11328C52.5114 6.521 52.2116 6.01452 51.8281 5.59375C51.4445 5.17292 50.9875 4.84037 50.458 4.59668ZM60.5273 4.37988H58.1279V1.53906L55.501 2.12012V4.37988H53.7656V6.62305H55.501V10.4951C55.501 11.4144 55.763 12.1093 56.2871 12.5801C56.8114 13.0509 57.5873 13.2871 58.6143 13.2871C58.8628 13.2871 59.1707 13.2617 59.5381 13.2119C59.9056 13.1621 60.2085 13.098 60.4463 13.0205V10.8438C60.2302 10.9102 60.0304 10.9577 59.8467 10.9854C59.6629 11.013 59.4681 11.0273 59.2627 11.0273C58.8412 11.0273 58.5465 10.9467 58.3789 10.7861C58.2114 10.6256 58.128 10.3513 58.1279 9.96387V6.62305H60.5273V4.37988ZM32.499 5.21094C31.8775 4.54636 31.0802 4.21393 30.1074 4.21387C29.5453 4.21387 29.0264 4.31983 28.5508 4.53027C28.0753 4.74069 27.6642 5.0392 27.3184 5.42676C27.0265 5.05017 26.6614 4.75408 26.2236 4.53809C25.7859 4.3221 25.3021 4.2139 24.7725 4.21387C24.3725 4.21387 23.9911 4.27463 23.6289 4.39648C23.2668 4.51834 22.9345 4.7016 22.6318 4.94531V4.37988H20.0049V13.1699H22.6318V7.15527C22.794 6.9448 22.9912 6.78688 23.2236 6.68164C23.456 6.57644 23.718 6.52348 24.0098 6.52344C24.4313 6.52344 24.7694 6.67045 25.0234 6.96387C25.2775 7.25743 25.4043 7.6428 25.4043 8.11914V13.1699H28.0312V7.75293C28.0312 7.65349 28.0288 7.55682 28.0234 7.46289C28.018 7.36873 28.0098 7.2771 27.999 7.18848C28.172 6.97802 28.3774 6.81456 28.6152 6.69824C28.8531 6.58193 29.1183 6.52344 29.4102 6.52344C29.8316 6.5235 30.1698 6.67037 30.4238 6.96387C30.6778 7.25741 30.8047 7.64285 30.8047 8.11914V13.1699H33.4316V7.75293C33.4315 6.72292 33.1205 5.87549 32.499 5.21094ZM37.9072 6.79004C38.2206 6.54642 38.5931 6.42388 39.0254 6.42383C39.447 6.42383 39.8178 6.55185 40.1367 6.80664C40.4554 7.0614 40.6847 7.39951 40.8252 7.82031H37.2422C37.3719 7.37721 37.5937 7.03375 37.9072 6.79004ZM47.5547 6.79004C47.8682 6.54635 48.2415 6.42385 48.6738 6.42383C49.0954 6.42383 49.4662 6.55185 49.7852 6.80664C50.1038 7.06139 50.3332 7.39956 50.4736 7.82031H46.8906C47.0203 7.37741 47.2414 7.03373 47.5547 6.79004ZM14.3623 3.59082C14.3623 1.60778 12.7545 0 10.7715 0C8.78861 0.000194937 7.18164 1.6079 7.18164 3.59082C7.18175 5.57365 8.78868 7.18145 10.7715 7.18164C12.7545 7.18164 14.3622 5.57377 14.3623 3.59082ZM63.7943 3.45508C63.5655 3.67783 63.285 3.7892 62.9528 3.7892C62.6205 3.7892 62.3384 3.67783 62.1065 3.45508C61.8745 3.23234 61.7586 2.95155 61.7586 2.61273C61.7586 2.28017 61.8745 2.00096 62.1065 1.77507C62.3384 1.54919 62.6205 1.43625 62.9528 1.43625C63.285 1.43625 63.5655 1.54919 63.7943 1.77507C64.0231 2.00096 64.1375 2.28017 64.1375 2.61273C64.1375 2.95155 64.0231 3.23234 63.7943 3.45508Z" fill="#ADADAD"/>
</svg>
