<svg width="53" height="26" viewBox="0 0 53 26" fill="none" xmlns="http://www.w3.org/2000/svg">
<path d="M16.8281 13.5752C19.5629 13.5752 21.5175 15.5472 21.5176 18.3242C21.5176 21.1013 19.5629 23.083 16.8281 23.083C16.0197 23.0829 15.2795 22.8701 14.6484 22.4902V26H11.6025V13.8672H13.6973L14.083 14.5752C14.7726 13.9809 15.6484 13.6217 16.6309 13.5791L16.8281 13.5752ZM47.9873 13.5752C50.87 13.5752 52.8662 15.6255 52.8662 18.2402C52.8662 18.5086 52.8428 18.7773 52.8027 19.0527H46.1621C46.3637 20.0749 47.0149 20.6033 47.9873 20.6035C48.7069 20.6035 49.3084 20.2894 49.6045 19.7676H52.6699C52.0406 21.8019 50.2312 23.0732 47.9873 23.0732C45.197 23.073 43.1299 21.0403 43.1299 18.3174C43.13 15.585 45.1805 13.5754 47.9873 13.5752ZM31.9375 12.6348H29.6582L29.3672 11.9727C28.6395 12.5829 27.7115 12.9365 26.6699 12.9365C26.4449 12.9365 26.2255 12.9216 26.0117 12.8955V14.4541C26.6702 13.9256 27.5081 13.6035 28.3994 13.6035C30.4525 13.6035 31.7723 15.1028 31.7725 17.4131V22.7812H28.6914V17.7705C28.6914 16.7425 28.3293 16.2178 27.5254 16.2178C26.5933 16.2178 26.0117 16.8776 26.0117 18.0215V22.7812H22.9316V11.1787C22.3215 10.3783 21.9707 9.34821 21.9707 8.17773C21.9709 5.40782 23.9258 3.42883 26.6699 3.42871C27.4956 3.42871 28.2517 3.65116 28.8926 4.04785V0.501953H31.9375V12.6348ZM36.6953 22.7812H33.6143V13.8672H36.6953V22.7812ZM43.3828 3.42871C46.2889 3.42895 48.3973 5.41503 48.3975 8.17773C48.3974 10.9311 46.289 12.9265 43.3828 12.9268C42.7885 12.9268 42.2285 12.8419 41.7129 12.6865V22.7812H38.6328V10.6484H39.0303C38.6054 9.94158 38.3682 9.10245 38.3682 8.17773C38.3684 5.41486 40.467 3.42871 43.3828 3.42871ZM16.416 16.2842C15.2624 16.2844 14.4141 17.1534 14.4141 18.3242C14.4142 19.4949 15.2624 20.364 16.416 20.3643C17.5627 20.3643 18.4179 19.4951 18.418 18.3242C18.4179 17.1533 17.5699 16.2842 16.416 16.2842ZM47.9873 15.9805C47.0897 15.9806 46.4651 16.4673 46.2158 17.3525H49.832C49.5617 16.4618 48.9169 15.9805 47.9873 15.9805ZM4.68945 3.44336C5.74282 3.44336 6.68434 3.79408 7.42285 4.40137L7.7373 3.71191H10.0332V12.626H7.65234L7.38867 11.9951C6.65631 12.5863 5.72816 12.9277 4.68945 12.9277C1.95495 12.9277 0.000250955 10.9388 0 8.16895C0 5.4084 1.95477 3.44344 4.68945 3.44336ZM14.9395 8.6748C14.9395 9.6156 15.4474 10.1689 16.2705 10.1689C17.0932 10.1688 17.5908 9.60607 17.5908 8.6748V3.7207H20.6719V8.80859C20.6717 11.3024 18.912 12.9266 16.2705 12.9268C13.6286 12.9268 11.8596 11.3025 11.8594 8.80859V3.7207H14.9395V8.6748ZM36.9512 12.6348H36.6719V12.752H33.6377V10.1465H33.8701V3.7207H36.9512V12.6348ZM27.082 6.1377C25.9284 6.13785 25.0803 7.01398 25.0801 8.17773C25.0801 9.34153 25.9283 10.2176 27.082 10.2178C28.2359 10.2178 29.084 9.34163 29.084 8.17773C29.0838 7.01388 28.2358 6.1377 27.082 6.1377ZM5.10156 6.15039C3.94073 6.15039 3.09964 7.01885 3.09961 8.17578C3.09978 9.33966 3.94778 10.209 5.10156 10.209C6.2553 10.2089 7.10334 9.33963 7.10352 8.17578C7.10348 7.01888 6.25539 6.15043 5.10156 6.15039ZM43.3828 6.18652C42.2597 6.18652 41.4543 6.99953 41.4541 8.17773C41.4541 9.35614 42.2596 10.1688 43.3828 10.1689C44.5058 10.1687 45.3115 9.356 45.3115 8.17773C45.3113 7.00669 44.5057 6.18674 43.3828 6.18652ZM50.4502 3.62109C50.7851 3.62116 51.0681 3.73516 51.2988 3.96289C51.5294 4.19065 51.6445 4.47235 51.6445 4.80762C51.6445 5.14923 51.5295 5.43263 51.2988 5.65723C51.0682 5.88177 50.7851 5.99408 50.4502 5.99414C50.1153 5.99414 49.8305 5.8817 49.5967 5.65723C49.3628 5.43263 49.2461 5.14923 49.2461 4.80762C49.2461 4.47225 49.3628 4.19069 49.5967 3.96289C49.8306 3.7351 50.1151 3.62109 50.4502 3.62109ZM36.9277 2.60547H33.8936V0H36.9277V2.60547Z" fill="#ADADAD"/>
</svg>
